
<svg width="73" height="73" viewBox="0 0 73 73" fill="none" xmlns="http://www.w3.org/2000/svg">
<path fill-rule="evenodd" clip-rule="evenodd" d="M36.5 70.08C55.0449 70.08 70.08 55.0449 70.08 36.5C70.08 17.9551 55.0449 2.92 36.5 2.92C17.9551 2.92 2.92 17.9551 2.92 36.5C2.92 55.0449 17.9551 70.08 36.5 70.08ZM36.5 73C56.6597 73 73 56.6597 73 36.5C73 16.3403 56.6597 0 36.5 0C16.3403 0 0 16.3403 0 36.5C0 56.6597 16.3403 73 36.5 73Z" fill="#010B78"/>
<path d="M54.2012 31.7837L40.5833 23.9233C39.7552 23.4476 38.8167 23.1978 37.8617 23.1989C36.9067 23.1999 35.9687 23.4519 35.1417 23.9295C34.3147 24.4071 33.6277 25.0936 33.1495 25.9202C32.6712 26.7468 32.4185 27.6846 32.4167 28.6396L24.25 23.9233C23.4219 23.4476 22.4834 23.1978 21.5284 23.1989C20.5734 23.1999 19.6354 23.4519 18.8084 23.9295C17.9814 24.4071 17.2944 25.0936 16.8161 25.9202C16.3379 26.7468 16.0852 27.6846 16.0833 28.6396V44.3604C16.0783 45.3137 16.3273 46.2511 16.8045 47.0764C17.2817 47.9017 17.97 48.585 18.7987 49.0562C19.6256 49.5507 20.5711 49.8118 21.5346 49.8116C22.4882 49.8065 23.424 49.5532 24.25 49.0766L32.4167 44.3604C32.4123 45.3163 32.6613 46.2563 33.1382 47.0848C33.6152 47.9132 34.3032 48.6005 35.1321 49.0766C35.9601 49.5571 36.9004 49.8101 37.8577 49.8101C38.815 49.8101 39.7553 49.5571 40.5833 49.0766L54.2012 41.2162C55.0278 40.7372 55.7138 40.0493 56.1908 39.2216C56.6677 38.3938 56.9188 37.4553 56.9188 36.5C56.9188 35.5447 56.6677 34.6061 56.1908 33.7784C55.7138 32.9507 55.0278 32.2628 54.2012 31.7837ZM32.4167 39.6441L22.2083 45.5241C22.0022 45.6409 21.7693 45.7021 21.5324 45.7017C21.2955 45.7014 21.0627 45.6395 20.8569 45.5222C20.6511 45.4049 20.4793 45.2362 20.3583 45.0325C20.2373 44.8288 20.1713 44.5972 20.1667 44.3604V28.6396C20.1713 28.4027 20.2373 28.1711 20.3583 27.9675C20.4793 27.7638 20.6511 27.595 20.8569 27.4777C21.0627 27.3604 21.2955 27.2986 21.5324 27.2982C21.7693 27.2979 22.0022 27.3591 22.2083 27.4758L32.4167 33.3558V39.6441ZM52.1596 37.6025L38.5417 45.5446C38.3324 45.6608 38.097 45.7217 37.8577 45.7217C37.6184 45.7217 37.383 45.6608 37.1737 45.5446C36.9664 45.4249 36.7946 45.252 36.6762 45.0439C36.5578 44.8358 36.4969 44.5998 36.5 44.3604V28.6396C36.4969 28.4001 36.5578 28.1642 36.6762 27.9561C36.7946 27.7479 36.9664 27.5751 37.1737 27.4554C37.3881 27.3421 37.6255 27.2792 37.8679 27.2716C38.1051 27.2696 38.3383 27.3332 38.5417 27.4554L52.1596 35.3158C52.3673 35.4359 52.5398 35.6086 52.6597 35.8164C52.7796 36.0243 52.8427 36.26 52.8427 36.5C52.8427 36.7399 52.7796 36.9757 52.6597 37.1835C52.5398 37.3914 52.3673 37.564 52.1596 37.6841V37.6025Z" fill="#EBB12B"/>
</svg>
